<mxfile host="app.diagrams.net" modified="2024-04-27T15:52:56.242Z" agent="Mozilla/5.0 (Windows NT 10.0; Win64; x64) AppleWebKit/537.36 (KHTML, like Gecko) Chrome/122.0.0.0 YaBrowser/24.4.0.0 Safari/537.36" etag="qaOJER8_q6fUuj5KslRJ" version="24.2.2" type="device">
  <diagram id="jtDGCLaPXaIhu-0UFEpr" name="Страница — 1">
    <mxGraphModel dx="1324" dy="937" grid="0" gridSize="10" guides="1" tooltips="1" connect="1" arrows="1" fold="1" page="0" pageScale="1" pageWidth="827" pageHeight="1169" math="0" shadow="0">
      <root>
        <mxCell id="0" />
        <mxCell id="1" parent="0" />
        <mxCell id="9IXPJnxXttqhWxvoYLWS-1" value="TableStr" style="swimlane;fontStyle=1;align=center;verticalAlign=top;childLayout=stackLayout;horizontal=1;startSize=26;horizontalStack=0;resizeParent=1;resizeParentMax=0;resizeLast=0;collapsible=1;marginBottom=0;whiteSpace=wrap;html=1;" parent="1" vertex="1">
          <mxGeometry x="20" y="20" width="171" height="308" as="geometry">
            <mxRectangle x="101" y="384" width="52" height="26" as="alternateBounds" />
          </mxGeometry>
        </mxCell>
        <mxCell id="9IXPJnxXttqhWxvoYLWS-2" value="- _size: int" style="text;strokeColor=none;fillColor=none;align=left;verticalAlign=top;spacingLeft=4;spacingRight=4;overflow=hidden;rotatable=0;points=[[0,0.5],[1,0.5]];portConstraint=eastwest;whiteSpace=wrap;html=1;" parent="9IXPJnxXttqhWxvoYLWS-1" vertex="1">
          <mxGeometry y="26" width="171" height="26" as="geometry" />
        </mxCell>
        <mxCell id="9IXPJnxXttqhWxvoYLWS-3" value="- _fulness: int" style="text;strokeColor=none;fillColor=none;align=left;verticalAlign=top;spacingLeft=4;spacingRight=4;overflow=hidden;rotatable=0;points=[[0,0.5],[1,0.5]];portConstraint=eastwest;whiteSpace=wrap;html=1;" parent="9IXPJnxXttqhWxvoYLWS-1" vertex="1">
          <mxGeometry y="52" width="171" height="26" as="geometry" />
        </mxCell>
        <mxCell id="9IXPJnxXttqhWxvoYLWS-4" value="- _elems: TableNode**" style="text;strokeColor=none;fillColor=none;align=left;verticalAlign=top;spacingLeft=4;spacingRight=4;overflow=hidden;rotatable=0;points=[[0,0.5],[1,0.5]];portConstraint=eastwest;whiteSpace=wrap;html=1;" parent="9IXPJnxXttqhWxvoYLWS-1" vertex="1">
          <mxGeometry y="78" width="171" height="26" as="geometry" />
        </mxCell>
        <mxCell id="JBxFO5Z4Lx7hrTqLq64p-2" value="- _sorted: TableNode**" style="text;strokeColor=none;fillColor=none;align=left;verticalAlign=top;spacingLeft=4;spacingRight=4;overflow=hidden;rotatable=0;points=[[0,0.5],[1,0.5]];portConstraint=eastwest;whiteSpace=wrap;html=1;" vertex="1" parent="9IXPJnxXttqhWxvoYLWS-1">
          <mxGeometry y="104" width="171" height="26" as="geometry" />
        </mxCell>
        <mxCell id="9IXPJnxXttqhWxvoYLWS-5" value="" style="line;strokeWidth=1;fillColor=none;align=left;verticalAlign=middle;spacingTop=-1;spacingLeft=3;spacingRight=3;rotatable=0;labelPosition=right;points=[];portConstraint=eastwest;strokeColor=inherit;" parent="9IXPJnxXttqhWxvoYLWS-1" vertex="1">
          <mxGeometry y="130" width="171" height="8" as="geometry" />
        </mxCell>
        <mxCell id="9IXPJnxXttqhWxvoYLWS-6" value="&lt;div style=&quot;text-align: center;&quot;&gt;&lt;span style=&quot;background-color: initial;&quot;&gt;+ TableStr&lt;/span&gt;&lt;span style=&quot;background-color: initial;&quot;&gt;(size: int)&lt;/span&gt;&lt;/div&gt;" style="text;strokeColor=none;fillColor=none;align=left;verticalAlign=top;spacingLeft=4;spacingRight=4;overflow=hidden;rotatable=0;points=[[0,0.5],[1,0.5]];portConstraint=eastwest;whiteSpace=wrap;html=1;" parent="9IXPJnxXttqhWxvoYLWS-1" vertex="1">
          <mxGeometry y="138" width="171" height="26" as="geometry" />
        </mxCell>
        <mxCell id="9IXPJnxXttqhWxvoYLWS-8" value="+ ~TableStr()" style="text;strokeColor=none;fillColor=none;align=left;verticalAlign=top;spacingLeft=4;spacingRight=4;overflow=hidden;rotatable=0;points=[[0,0.5],[1,0.5]];portConstraint=eastwest;whiteSpace=wrap;html=1;" parent="9IXPJnxXttqhWxvoYLWS-1" vertex="1">
          <mxGeometry y="164" width="171" height="26" as="geometry" />
        </mxCell>
        <mxCell id="9IXPJnxXttqhWxvoYLWS-10" value="+ add(key: string, value: double): double" style="text;strokeColor=none;fillColor=none;align=left;verticalAlign=top;spacingLeft=4;spacingRight=4;overflow=hidden;rotatable=0;points=[[0,0.5],[1,0.5]];portConstraint=eastwest;whiteSpace=wrap;html=1;" parent="9IXPJnxXttqhWxvoYLWS-1" vertex="1">
          <mxGeometry y="190" width="171" height="40" as="geometry" />
        </mxCell>
        <mxCell id="JBxFO5Z4Lx7hrTqLq64p-24" value="+ selectionSort(): pair&amp;lt;int, int&amp;gt;" style="text;strokeColor=none;fillColor=none;align=left;verticalAlign=top;spacingLeft=4;spacingRight=4;overflow=hidden;rotatable=0;points=[[0,0.5],[1,0.5]];portConstraint=eastwest;whiteSpace=wrap;html=1;" vertex="1" parent="9IXPJnxXttqhWxvoYLWS-1">
          <mxGeometry y="230" width="171" height="26" as="geometry" />
        </mxCell>
        <mxCell id="9IXPJnxXttqhWxvoYLWS-11" value="+ toString(): string" style="text;strokeColor=none;fillColor=none;align=left;verticalAlign=top;spacingLeft=4;spacingRight=4;overflow=hidden;rotatable=0;points=[[0,0.5],[1,0.5]];portConstraint=eastwest;whiteSpace=wrap;html=1;" parent="9IXPJnxXttqhWxvoYLWS-1" vertex="1">
          <mxGeometry y="256" width="171" height="26" as="geometry" />
        </mxCell>
        <mxCell id="JBxFO5Z4Lx7hrTqLq64p-1" value="+ toStringSorted(): string" style="text;strokeColor=none;fillColor=none;align=left;verticalAlign=top;spacingLeft=4;spacingRight=4;overflow=hidden;rotatable=0;points=[[0,0.5],[1,0.5]];portConstraint=eastwest;whiteSpace=wrap;html=1;" vertex="1" parent="9IXPJnxXttqhWxvoYLWS-1">
          <mxGeometry y="282" width="171" height="26" as="geometry" />
        </mxCell>
        <mxCell id="9IXPJnxXttqhWxvoYLWS-36" value="TableNode" style="swimlane;fontStyle=1;align=center;verticalAlign=top;childLayout=stackLayout;horizontal=1;startSize=26;horizontalStack=0;resizeParent=1;resizeParentMax=0;resizeLast=0;collapsible=1;marginBottom=0;whiteSpace=wrap;html=1;" parent="1" vertex="1">
          <mxGeometry x="-200" y="-116" width="220" height="138" as="geometry">
            <mxRectangle x="101" y="384" width="52" height="26" as="alternateBounds" />
          </mxGeometry>
        </mxCell>
        <mxCell id="9IXPJnxXttqhWxvoYLWS-37" value="- key: string" style="text;strokeColor=none;fillColor=none;align=left;verticalAlign=top;spacingLeft=4;spacingRight=4;overflow=hidden;rotatable=0;points=[[0,0.5],[1,0.5]];portConstraint=eastwest;whiteSpace=wrap;html=1;" parent="9IXPJnxXttqhWxvoYLWS-36" vertex="1">
          <mxGeometry y="26" width="220" height="26" as="geometry" />
        </mxCell>
        <mxCell id="9IXPJnxXttqhWxvoYLWS-38" value="- value: double" style="text;strokeColor=none;fillColor=none;align=left;verticalAlign=top;spacingLeft=4;spacingRight=4;overflow=hidden;rotatable=0;points=[[0,0.5],[1,0.5]];portConstraint=eastwest;whiteSpace=wrap;html=1;" parent="9IXPJnxXttqhWxvoYLWS-36" vertex="1">
          <mxGeometry y="52" width="220" height="26" as="geometry" />
        </mxCell>
        <mxCell id="9IXPJnxXttqhWxvoYLWS-40" value="" style="line;strokeWidth=1;fillColor=none;align=left;verticalAlign=middle;spacingTop=-1;spacingLeft=3;spacingRight=3;rotatable=0;labelPosition=right;points=[];portConstraint=eastwest;strokeColor=inherit;" parent="9IXPJnxXttqhWxvoYLWS-36" vertex="1">
          <mxGeometry y="78" width="220" height="8" as="geometry" />
        </mxCell>
        <mxCell id="9IXPJnxXttqhWxvoYLWS-41" value="+ TableNode(key: string, value: double)" style="text;strokeColor=none;fillColor=none;align=left;verticalAlign=top;spacingLeft=4;spacingRight=4;overflow=hidden;rotatable=0;points=[[0,0.5],[1,0.5]];portConstraint=eastwest;whiteSpace=wrap;html=1;" parent="9IXPJnxXttqhWxvoYLWS-36" vertex="1">
          <mxGeometry y="86" width="220" height="26" as="geometry" />
        </mxCell>
        <mxCell id="9IXPJnxXttqhWxvoYLWS-46" value="+ toString(): string" style="text;strokeColor=none;fillColor=none;align=left;verticalAlign=top;spacingLeft=4;spacingRight=4;overflow=hidden;rotatable=0;points=[[0,0.5],[1,0.5]];portConstraint=eastwest;whiteSpace=wrap;html=1;" parent="9IXPJnxXttqhWxvoYLWS-36" vertex="1">
          <mxGeometry y="112" width="220" height="26" as="geometry" />
        </mxCell>
        <mxCell id="9IXPJnxXttqhWxvoYLWS-48" value="TableNode" style="swimlane;fontStyle=1;align=center;verticalAlign=top;childLayout=stackLayout;horizontal=1;startSize=26;horizontalStack=0;resizeParent=1;resizeParentMax=0;resizeLast=0;collapsible=1;marginBottom=0;whiteSpace=wrap;html=1;" parent="1" vertex="1">
          <mxGeometry x="222" y="-116" width="201" height="180" as="geometry">
            <mxRectangle x="101" y="384" width="52" height="26" as="alternateBounds" />
          </mxGeometry>
        </mxCell>
        <mxCell id="9IXPJnxXttqhWxvoYLWS-49" value="- key: int" style="text;strokeColor=none;fillColor=none;align=left;verticalAlign=top;spacingLeft=4;spacingRight=4;overflow=hidden;rotatable=0;points=[[0,0.5],[1,0.5]];portConstraint=eastwest;whiteSpace=wrap;html=1;" parent="9IXPJnxXttqhWxvoYLWS-48" vertex="1">
          <mxGeometry y="26" width="201" height="26" as="geometry" />
        </mxCell>
        <mxCell id="9IXPJnxXttqhWxvoYLWS-50" value="- value: double" style="text;strokeColor=none;fillColor=none;align=left;verticalAlign=top;spacingLeft=4;spacingRight=4;overflow=hidden;rotatable=0;points=[[0,0.5],[1,0.5]];portConstraint=eastwest;whiteSpace=wrap;html=1;" parent="9IXPJnxXttqhWxvoYLWS-48" vertex="1">
          <mxGeometry y="52" width="201" height="26" as="geometry" />
        </mxCell>
        <mxCell id="9IXPJnxXttqhWxvoYLWS-55" value="- str: string" style="text;strokeColor=none;fillColor=none;align=left;verticalAlign=top;spacingLeft=4;spacingRight=4;overflow=hidden;rotatable=0;points=[[0,0.5],[1,0.5]];portConstraint=eastwest;whiteSpace=wrap;html=1;" parent="9IXPJnxXttqhWxvoYLWS-48" vertex="1">
          <mxGeometry y="78" width="201" height="26" as="geometry" />
        </mxCell>
        <mxCell id="9IXPJnxXttqhWxvoYLWS-51" value="" style="line;strokeWidth=1;fillColor=none;align=left;verticalAlign=middle;spacingTop=-1;spacingLeft=3;spacingRight=3;rotatable=0;labelPosition=right;points=[];portConstraint=eastwest;strokeColor=inherit;" parent="9IXPJnxXttqhWxvoYLWS-48" vertex="1">
          <mxGeometry y="104" width="201" height="8" as="geometry" />
        </mxCell>
        <mxCell id="9IXPJnxXttqhWxvoYLWS-52" value="+ TableNode(key: int, value: double, str: string)" style="text;strokeColor=none;fillColor=none;align=left;verticalAlign=top;spacingLeft=4;spacingRight=4;overflow=hidden;rotatable=0;points=[[0,0.5],[1,0.5]];portConstraint=eastwest;whiteSpace=wrap;html=1;" parent="9IXPJnxXttqhWxvoYLWS-48" vertex="1">
          <mxGeometry y="112" width="201" height="42" as="geometry" />
        </mxCell>
        <mxCell id="9IXPJnxXttqhWxvoYLWS-54" value="+ toString(): string" style="text;strokeColor=none;fillColor=none;align=left;verticalAlign=top;spacingLeft=4;spacingRight=4;overflow=hidden;rotatable=0;points=[[0,0.5],[1,0.5]];portConstraint=eastwest;whiteSpace=wrap;html=1;" parent="9IXPJnxXttqhWxvoYLWS-48" vertex="1">
          <mxGeometry y="154" width="201" height="26" as="geometry" />
        </mxCell>
        <mxCell id="9IXPJnxXttqhWxvoYLWS-56" value="TableNum" style="swimlane;fontStyle=1;align=center;verticalAlign=top;childLayout=stackLayout;horizontal=1;startSize=26;horizontalStack=0;resizeParent=1;resizeParentMax=0;resizeLast=0;collapsible=1;marginBottom=0;whiteSpace=wrap;html=1;" parent="1" vertex="1">
          <mxGeometry x="423" y="64" width="171" height="310" as="geometry">
            <mxRectangle x="101" y="384" width="52" height="26" as="alternateBounds" />
          </mxGeometry>
        </mxCell>
        <mxCell id="JBxFO5Z4Lx7hrTqLq64p-3" value="- _size: int" style="text;strokeColor=none;fillColor=none;align=left;verticalAlign=top;spacingLeft=4;spacingRight=4;overflow=hidden;rotatable=0;points=[[0,0.5],[1,0.5]];portConstraint=eastwest;whiteSpace=wrap;html=1;" vertex="1" parent="9IXPJnxXttqhWxvoYLWS-56">
          <mxGeometry y="26" width="171" height="26" as="geometry" />
        </mxCell>
        <mxCell id="JBxFO5Z4Lx7hrTqLq64p-4" value="- _fulness: int" style="text;strokeColor=none;fillColor=none;align=left;verticalAlign=top;spacingLeft=4;spacingRight=4;overflow=hidden;rotatable=0;points=[[0,0.5],[1,0.5]];portConstraint=eastwest;whiteSpace=wrap;html=1;" vertex="1" parent="9IXPJnxXttqhWxvoYLWS-56">
          <mxGeometry y="52" width="171" height="26" as="geometry" />
        </mxCell>
        <mxCell id="JBxFO5Z4Lx7hrTqLq64p-6" value="- _sorted: TableNode**" style="text;strokeColor=none;fillColor=none;align=left;verticalAlign=top;spacingLeft=4;spacingRight=4;overflow=hidden;rotatable=0;points=[[0,0.5],[1,0.5]];portConstraint=eastwest;whiteSpace=wrap;html=1;" vertex="1" parent="9IXPJnxXttqhWxvoYLWS-56">
          <mxGeometry y="78" width="171" height="26" as="geometry" />
        </mxCell>
        <mxCell id="JBxFO5Z4Lx7hrTqLq64p-5" value="- _elems: TableNode**" style="text;strokeColor=none;fillColor=none;align=left;verticalAlign=top;spacingLeft=4;spacingRight=4;overflow=hidden;rotatable=0;points=[[0,0.5],[1,0.5]];portConstraint=eastwest;whiteSpace=wrap;html=1;" vertex="1" parent="9IXPJnxXttqhWxvoYLWS-56">
          <mxGeometry y="104" width="171" height="26" as="geometry" />
        </mxCell>
        <mxCell id="9IXPJnxXttqhWxvoYLWS-60" value="" style="line;strokeWidth=1;fillColor=none;align=left;verticalAlign=middle;spacingTop=-1;spacingLeft=3;spacingRight=3;rotatable=0;labelPosition=right;points=[];portConstraint=eastwest;strokeColor=inherit;" parent="9IXPJnxXttqhWxvoYLWS-56" vertex="1">
          <mxGeometry y="130" width="171" height="8" as="geometry" />
        </mxCell>
        <mxCell id="9IXPJnxXttqhWxvoYLWS-61" value="&lt;div style=&quot;text-align: center;&quot;&gt;&lt;span style=&quot;background-color: initial;&quot;&gt;+ TableNum&lt;/span&gt;&lt;span style=&quot;background-color: initial;&quot;&gt;(size: int)&lt;/span&gt;&lt;/div&gt;" style="text;strokeColor=none;fillColor=none;align=left;verticalAlign=top;spacingLeft=4;spacingRight=4;overflow=hidden;rotatable=0;points=[[0,0.5],[1,0.5]];portConstraint=eastwest;whiteSpace=wrap;html=1;" parent="9IXPJnxXttqhWxvoYLWS-56" vertex="1">
          <mxGeometry y="138" width="171" height="26" as="geometry" />
        </mxCell>
        <mxCell id="9IXPJnxXttqhWxvoYLWS-62" value="&lt;div style=&quot;text-align: center;&quot;&gt;&lt;span style=&quot;background-color: initial;&quot;&gt;+ ~TableNum&lt;/span&gt;&lt;span style=&quot;background-color: initial;&quot;&gt;()&lt;/span&gt;&lt;/div&gt;" style="text;strokeColor=none;fillColor=none;align=left;verticalAlign=top;spacingLeft=4;spacingRight=4;overflow=hidden;rotatable=0;points=[[0,0.5],[1,0.5]];portConstraint=eastwest;whiteSpace=wrap;html=1;" parent="9IXPJnxXttqhWxvoYLWS-56" vertex="1">
          <mxGeometry y="164" width="171" height="26" as="geometry" />
        </mxCell>
        <mxCell id="9IXPJnxXttqhWxvoYLWS-63" value="+ add(key: int, value: double, str: string): double" style="text;strokeColor=none;fillColor=none;align=left;verticalAlign=top;spacingLeft=4;spacingRight=4;overflow=hidden;rotatable=0;points=[[0,0.5],[1,0.5]];portConstraint=eastwest;whiteSpace=wrap;html=1;" parent="9IXPJnxXttqhWxvoYLWS-56" vertex="1">
          <mxGeometry y="190" width="171" height="42" as="geometry" />
        </mxCell>
        <mxCell id="JBxFO5Z4Lx7hrTqLq64p-25" value="+ selectionSort(): pair&amp;lt;int, int&amp;gt;" style="text;strokeColor=none;fillColor=none;align=left;verticalAlign=top;spacingLeft=4;spacingRight=4;overflow=hidden;rotatable=0;points=[[0,0.5],[1,0.5]];portConstraint=eastwest;whiteSpace=wrap;html=1;" vertex="1" parent="9IXPJnxXttqhWxvoYLWS-56">
          <mxGeometry y="232" width="171" height="26" as="geometry" />
        </mxCell>
        <mxCell id="9IXPJnxXttqhWxvoYLWS-64" value="+ toString(): string" style="text;strokeColor=none;fillColor=none;align=left;verticalAlign=top;spacingLeft=4;spacingRight=4;overflow=hidden;rotatable=0;points=[[0,0.5],[1,0.5]];portConstraint=eastwest;whiteSpace=wrap;html=1;" parent="9IXPJnxXttqhWxvoYLWS-56" vertex="1">
          <mxGeometry y="258" width="171" height="26" as="geometry" />
        </mxCell>
        <mxCell id="JBxFO5Z4Lx7hrTqLq64p-7" value="+ toStringSorted(): string" style="text;strokeColor=none;fillColor=none;align=left;verticalAlign=top;spacingLeft=4;spacingRight=4;overflow=hidden;rotatable=0;points=[[0,0.5],[1,0.5]];portConstraint=eastwest;whiteSpace=wrap;html=1;" vertex="1" parent="9IXPJnxXttqhWxvoYLWS-56">
          <mxGeometry y="284" width="171" height="26" as="geometry" />
        </mxCell>
        <mxCell id="JBxFO5Z4Lx7hrTqLq64p-20" style="edgeStyle=orthogonalEdgeStyle;rounded=0;orthogonalLoop=1;jettySize=auto;html=1;entryX=0.001;entryY=0.49;entryDx=0;entryDy=0;entryPerimeter=0;" edge="1" parent="1" source="9IXPJnxXttqhWxvoYLWS-48" target="9IXPJnxXttqhWxvoYLWS-60">
          <mxGeometry relative="1" as="geometry" />
        </mxCell>
        <mxCell id="JBxFO5Z4Lx7hrTqLq64p-23" style="edgeStyle=orthogonalEdgeStyle;rounded=0;orthogonalLoop=1;jettySize=auto;html=1;entryX=0.002;entryY=0.506;entryDx=0;entryDy=0;entryPerimeter=0;" edge="1" parent="1" source="9IXPJnxXttqhWxvoYLWS-36" target="9IXPJnxXttqhWxvoYLWS-5">
          <mxGeometry relative="1" as="geometry" />
        </mxCell>
      </root>
    </mxGraphModel>
  </diagram>
</mxfile>
